<?xml version="1.0" encoding="utf-8"?>
<!-- Generator: Adobe Illustrator 26.0.2, SVG Export Plug-In . SVG Version: 6.00 Build 0)  -->
<svg version="1.1" xmlns="http://www.w3.org/2000/svg" xmlns:xlink="http://www.w3.org/1999/xlink" x="0px" y="0px"
	 viewBox="0 0 135.988 35.497" enable-background="new 0 0 135.988 35.497" xml:space="preserve">
<g id="Layer_1">
</g>
<g id="guides">
</g>
<g id="Fylke">
	<g>
		<polygon fill="#0075A2" points="27.681,2.571 2.292,2.571 14.986,18.076 		"/>
		<path fill="#0075A2" d="M14.986,33.581c2.066-1.644,4.778-3.761,7.124-6.804H7.863C10.208,29.82,12.921,31.937,14.986,33.581z"/>
		<path fill="#0075A2" d="M3.666,18.076c0.261,1.097,0.57,2.127,0.936,3.036c0.884,2.191,2.02,4.056,3.259,5.664
			c0,0,0.001,0.001,0.001,0.001l7.124-8.701H3.666z"/>
		<path fill="#D8D9DA" d="M27.681,2.571L14.986,18.076v0l-7.124,8.701l0,0H22.11l0,0c0,0,0.001-0.001,0.001-0.001
			c1.238-1.607,2.375-3.472,3.259-5.664c0.367-0.909,0.676-1.939,0.936-3.036C27.863,11.523,27.681,2.571,27.681,2.571z"/>
		<path fill="#D8D9DA" d="M14.986,18.076L2.292,2.571c0,0-0.182,8.952,1.374,15.505L14.986,18.076L14.986,18.076z"/>
	</g>
	<g>
		<g>
			<path fill="#212721" d="M40.077,11.845h-1.206l-3.537-9.274h1.643l2.57,7.101h0.013l2.597-7.101h1.563L40.077,11.845z"/>
			<path fill="#212721" d="M46.989,10.851c0.888,0,1.537-0.331,1.948-1.06l0.954,0.623c-0.689,1.086-1.59,1.59-2.968,1.59
				c-2.107,0-3.339-1.524-3.339-3.498c0-2.001,1.457-3.524,3.339-3.524c1.802,0,3.114,1.325,3.114,3.114
				c0,0.238-0.027,0.543-0.066,0.742h-5.008C45.055,9.937,45.797,10.851,46.989,10.851z M46.949,6.121
				c-1.033,0-1.669,0.729-1.908,1.669h3.577C48.566,6.877,47.89,6.121,46.949,6.121z"/>
			<path fill="#212721" d="M54.991,6.612c-0.305-0.278-0.848-0.517-1.325-0.517c-0.543,0-0.914,0.318-0.914,0.795
				c0,0.49,0.609,0.729,1.232,0.98c0.874,0.344,1.961,0.821,1.961,2.014c0,1.497-1.192,2.12-2.464,2.12
				c-0.954,0-1.828-0.371-2.411-1.073l0.901-0.782c0.464,0.477,0.927,0.729,1.497,0.729c0.583,0,1.113-0.291,1.113-0.914
				c0-0.517-0.609-0.755-1.272-1.02c-0.874-0.358-1.868-0.755-1.868-1.948c0-1.365,1.073-2.014,2.226-2.014
				c0.795,0,1.563,0.265,2.12,0.769L54.991,6.612z"/>
			<path fill="#212721" d="M59.165,6.32v2.915c0,0.172,0,0.331,0.013,0.53c0.04,0.636,0.252,1.007,0.848,1.007
				c0.291,0,0.543-0.08,0.755-0.186l0.398,1.073c-0.358,0.199-0.874,0.318-1.338,0.318c-0.967,0-1.577-0.451-1.842-1.139
				c-0.146-0.371-0.199-0.835-0.199-1.325V6.32h-0.874V5.141H57.8l0.066-1.577h1.298v1.577h1.842V6.32H59.165z"/>
			<path fill="#212721" d="M63.961,11.845h-1.365V2.571h1.365V11.845z"/>
			<path fill="#212721" d="M70.029,11.845l-0.04-0.676c-0.517,0.596-1.139,0.835-1.961,0.835c-1.245,0-2.385-0.636-2.385-2.067
				c0-1.683,1.51-2.213,2.968-2.213c0.344,0,0.768,0.04,1.312,0.146V7.671c0-0.98-0.45-1.55-1.524-1.55
				c-0.768,0-1.55,0.291-2.107,0.596l-0.384-1.1c0.729-0.344,1.762-0.636,2.703-0.636c1.921,0,2.676,1.06,2.676,2.796v4.067H70.029z
				 M69.923,8.824c-0.464-0.093-0.808-0.119-1.139-0.119c-0.782,0-1.802,0.212-1.802,1.166c0,0.755,0.583,1.047,1.245,1.047
				c0.649,0,1.192-0.318,1.696-0.742V8.824z"/>
			<path fill="#212721" d="M74.573,5.141l0.04,1.06c0.503-0.782,1.312-1.219,2.173-1.219c0.888,0,1.51,0.318,1.908,0.848
				c0.464,0.636,0.596,1.524,0.596,2.531v3.485h-1.365V8.48c0-0.609-0.027-1.285-0.318-1.749c-0.199-0.318-0.556-0.517-1.1-0.517
				c-0.716,0-1.431,0.49-1.868,1.192v4.438h-1.365V5.141H74.573z"/>
			<path fill="#212721" d="M87.504,11.845h-1.298l-0.04-0.888c-0.477,0.702-1.351,1.047-2.133,1.047
				c-1.895,0-3.286-1.563-3.286-3.524c0-1.802,1.325-3.498,3.312-3.498c0.755,0,1.55,0.318,2.08,0.874V2.571h1.365V11.845z
				 M84.285,6.214c-1.457,0-2.146,1.192-2.146,2.292c0,1.192,0.808,2.266,2.12,2.266c0.689,0,1.537-0.398,1.881-1.192V7.181
				C85.689,6.545,84.947,6.214,84.285,6.214z"/>
		</g>
		<g>
			<path fill="#212721" d="M39.826,18.112c-0.265-0.133-0.53-0.199-0.874-0.199s-0.556,0.08-0.715,0.212
				c-0.265,0.238-0.305,0.662-0.305,1.206v0.742h1.343l0.446,1.179h-1.789v5.525h-1.365v-5.525h-0.874v-1.179h0.874v-0.861
				c0-0.716,0.132-1.325,0.437-1.762c0.344-0.49,0.901-0.768,1.815-0.768c0.477,0,0.994,0.132,1.404,0.318L39.826,18.112z"/>
			<path fill="#212721" d="M41.707,20.073l1.643,4.823h0.027l1.696-4.823h1.484l-3.776,9.738l-1.206-0.477l1.06-2.809l-2.438-6.452
				H41.707z"/>
			<path fill="#212721" d="M49.14,26.777h-1.365v-9.274h1.365V26.777z"/>
			<path fill="#212721" d="M52.721,23.279l0.027,0.013l2.584-3.219h1.643l-2.372,2.756l2.57,3.948H55.53l-1.828-2.888l-0.98,1.139
				v1.749h-1.365v-9.274h1.365V23.279z"/>
			<path fill="#212721" d="M61.033,25.783c0.888,0,1.537-0.331,1.948-1.06l0.954,0.623c-0.689,1.086-1.59,1.59-2.968,1.59
				c-2.107,0-3.339-1.524-3.339-3.498c0-2.001,1.457-3.524,3.339-3.524c1.802,0,3.114,1.325,3.114,3.114
				c0,0.238-0.027,0.543-0.066,0.742h-5.008C59.098,24.869,59.84,25.783,61.033,25.783z M60.993,21.053
				c-1.033,0-1.669,0.729-1.908,1.669h3.577C62.609,21.809,61.934,21.053,60.993,21.053z"/>
			<path fill="#212721" d="M69.035,21.544c-0.305-0.278-0.848-0.517-1.325-0.517c-0.543,0-0.914,0.318-0.914,0.795
				c0,0.49,0.609,0.729,1.232,0.98c0.874,0.344,1.961,0.821,1.961,2.014c0,1.497-1.192,2.12-2.464,2.12
				c-0.954,0-1.828-0.371-2.411-1.073l0.901-0.782c0.464,0.477,0.927,0.729,1.497,0.729c0.583,0,1.113-0.291,1.113-0.914
				c0-0.517-0.609-0.755-1.272-1.02c-0.874-0.358-1.868-0.755-1.868-1.948c0-1.365,1.073-2.014,2.226-2.014
				c0.795,0,1.563,0.265,2.12,0.769L69.035,21.544z"/>
			<path fill="#212721" d="M73.036,23.279l0.027,0.013l2.584-3.219h1.643l-2.372,2.756l2.57,3.948h-1.643l-1.828-2.888l-0.98,1.139
				v1.749h-1.365v-9.274h1.365V23.279z"/>
			<path fill="#212721" d="M84.801,23.425c0,1.961-1.471,3.511-3.445,3.511c-1.987,0-3.445-1.55-3.445-3.511
				s1.457-3.511,3.445-3.511C83.33,19.914,84.801,21.464,84.801,23.425z M81.356,21.146c-1.192,0-2.054,1.02-2.054,2.279
				c0,1.245,0.861,2.279,2.054,2.279c1.192,0,2.054-1.033,2.054-2.279C83.41,22.166,82.549,21.146,81.356,21.146z"/>
			<path fill="#212721" d="M95.056,26.777v-3.365c0-0.609-0.013-1.285-0.291-1.749c-0.199-0.318-0.556-0.517-1.086-0.517
				c-0.609,0-1.272,0.411-1.722,1.02c0.04,0.344,0.066,0.729,0.066,1.126v3.485h-1.365v-3.365c0-0.609-0.013-1.338-0.331-1.802
				c-0.185-0.291-0.503-0.464-0.98-0.464c-0.636,0-1.312,0.53-1.722,1.086v4.544h-1.365v-6.704h1.298l0.027,0.967
				c0.517-0.702,1.338-1.126,2.08-1.126c0.755,0,1.431,0.291,1.842,0.914c0.066,0.093,0.119,0.199,0.159,0.291
				c0.583-0.835,1.444-1.206,2.305-1.206s1.444,0.305,1.828,0.808c0.49,0.636,0.623,1.55,0.623,2.57v3.485H95.056z"/>
			<path fill="#212721" d="M107.205,26.777v-3.365c0-0.609-0.013-1.285-0.291-1.749c-0.199-0.318-0.556-0.517-1.086-0.517
				c-0.609,0-1.272,0.411-1.722,1.02c0.04,0.344,0.066,0.729,0.066,1.126v3.485h-1.365v-3.365c0-0.609-0.013-1.338-0.331-1.802
				c-0.185-0.291-0.503-0.464-0.98-0.464c-0.636,0-1.312,0.53-1.722,1.086v4.544h-1.365v-6.704h1.298l0.027,0.967
				c0.517-0.702,1.338-1.126,2.08-1.126c0.755,0,1.431,0.291,1.842,0.914c0.066,0.093,0.119,0.199,0.159,0.291
				c0.583-0.835,1.444-1.206,2.305-1.206s1.444,0.305,1.828,0.808c0.49,0.636,0.623,1.55,0.623,2.57v3.485H107.205z"/>
			<path fill="#212721" d="M115.194,26.777l-0.04-1.06c-0.503,0.782-1.312,1.219-2.173,1.219c-0.888,0-1.51-0.318-1.908-0.848
				c-0.464-0.636-0.596-1.524-0.596-2.531v-3.484h1.365v3.365c0,0.609,0.027,1.285,0.318,1.749c0.199,0.318,0.556,0.517,1.1,0.517
				c0.715,0,1.431-0.49,1.868-1.192v-4.438h1.365v6.704H115.194z"/>
			<path fill="#212721" d="M119.845,20.073l0.04,1.06c0.503-0.782,1.312-1.219,2.173-1.219c0.888,0,1.51,0.318,1.908,0.848
				c0.464,0.636,0.596,1.524,0.596,2.531v3.485h-1.365v-3.365c0-0.609-0.027-1.285-0.318-1.749c-0.199-0.318-0.556-0.517-1.1-0.517
				c-0.715,0-1.431,0.49-1.868,1.192v4.438h-1.365v-6.704H119.845z"/>
			<path fill="#212721" d="M129.424,25.783c0.888,0,1.537-0.331,1.948-1.06l0.954,0.623c-0.689,1.086-1.59,1.59-2.968,1.59
				c-2.107,0-3.339-1.524-3.339-3.498c0-2.001,1.457-3.524,3.339-3.524c1.802,0,3.114,1.325,3.114,3.114
				c0,0.238-0.027,0.543-0.066,0.742h-5.008C127.489,24.869,128.231,25.783,129.424,25.783z M129.384,21.053
				c-1.033,0-1.669,0.729-1.908,1.669h3.577C131.001,21.809,130.325,21.053,129.384,21.053z"/>
		</g>
	</g>
	<g>
		<polygon fill="#006E96" points="27.738,2.532 2.285,2.532 15.012,18.076 		"/>
		<path fill="#006E96" d="M15.012,33.62c2.071-1.648,4.79-3.77,7.142-6.821H7.87C10.221,29.85,12.941,31.972,15.012,33.62z"/>
		<path fill="#006E96" d="M3.663,18.076c0.261,1.1,0.571,2.132,0.939,3.044c0.887,2.197,2.026,4.067,3.267,5.678
			c0,0,0.001,0.001,0.001,0.001l7.142-8.723H3.663z"/>
		<path fill="#D0CFCD" d="M27.738,2.532L15.012,18.076v0L7.87,26.799l0,0h14.283l0,0c0,0,0.001-0.001,0.001-0.001
			c1.242-1.611,2.381-3.481,3.267-5.678c0.368-0.912,0.678-1.944,0.939-3.044C27.92,11.506,27.738,2.532,27.738,2.532z"/>
		<path fill="#D0CFCD" d="M15.012,18.076L2.285,2.532c0,0-0.182,8.975,1.378,15.544L15.012,18.076L15.012,18.076z"/>
	</g>
</g>
</svg>
